<?xml version="1.0" standalone="no"?>
<!DOCTYPE svg PUBLIC "-//W3C//DTD SVG 20010904//EN"
 "http://www.w3.org/TR/2001/REC-SVG-20010904/DTD/svg10.dtd">
<svg version="1.0" xmlns="http://www.w3.org/2000/svg"
 width="1080.000000pt" height="1080.000000pt" viewBox="0 0 1080.000000 1080.000000"
 preserveAspectRatio="xMidYMid meet">

<g transform="translate(0.000000,1080.000000) scale(0.100000,-0.100000)"
fill="#000000" stroke="none">
<path d="M3061 9550 l-244 -560 -363 0 -364 0 0 -505 0 -505 140 0 c137 0 140
0 145 -22 9 -40 275 -1730 275 -1750 0 -17 -13 -18 -221 -18 l-221 0 6 -27 c3
-16 15 -77 26 -138 19 -108 491 -2758 531 -2985 11 -63 23 -123 26 -133 5 -18
15 -18 189 -12 152 6 185 5 189 -6 3 -8 89 -547 193 -1199 l187 -1185 1793 -3
c1429 -2 1794 0 1797 10 3 7 88 542 190 1188 102 646 188 1181 190 1189 4 11
36 12 180 6 l174 -7 6 23 c3 13 134 746 291 1629 157 883 288 1615 291 1627
l5 23 -211 0 c-178 0 -211 2 -211 15 0 15 267 1714 275 1753 5 22 8 22 155 22
l150 0 0 505 0 505 -384 0 -384 0 -243 560 -244 559 -2035 0 -2035 0 -244
-559z m4255 -115 l153 -350 -1064 -3 c-586 -1 -1544 -1 -2129 0 l-1065 3 139
320 c77 176 146 335 155 353 l15 32 1821 -2 1822 -3 153 -350z m994 -943 l0
-179 -172 -6 c-95 -4 -1345 -7 -2778 -7 -1433 0 -2683 3 -2777 7 l-173 6 0
179 0 178 2950 0 2950 0 0 -178z m-315 -537 c-3 -11 -66 -407 -140 -880 -74
-473 -137 -866 -140 -872 -6 -17 -4735 -19 -4735 -2 0 12 -267 1708 -275 1749
l-5 25 2649 0 c2645 0 2650 0 2646 -20z m85 -2097 c0 -7 -86 -494 -191 -1083
-269 -1511 -275 -1544 -281 -1550 -3 -3 -515 0 -1137 6 -888 10 -1374 10
-2263 0 -622 -6 -1134 -8 -1138 -4 -4 4 -30 141 -58 303 -29 162 -133 749
-232 1304 -99 556 -180 1016 -180 1023 0 11 491 13 2740 13 2144 0 2740 -3
2740 -12z m-1760 -2949 c475 -5 867 -12 869 -15 2 -2 -68 -464 -157 -1026 -89
-563 -162 -1026 -162 -1030 0 -5 -684 -8 -1520 -8 -836 0 -1520 3 -1520 8 0 4
-74 469 -163 1035 l-163 1027 155 1 c86 1 397 5 691 8 882 11 1068 11 1970 0z"/>
</g>
</svg>
