<svg xmlns="http://www.w3.org/2000/svg" width="400" height="400" viewBox="0 0 400 NaN" fill-rule="evenodd" xmlns:v="https://vecta.io/nano"><path d="M106.829 99.888c-1.956.375-4.383 2.289-5.977 4.712l-1.052 1.6V200l.774 95c1.23 1.907 2.308 3.018 4.026 4.148l1.6 1.052h40.6 40.6l1.544-.96c1.777-1.104 3.19-2.375 3.601-3.24l.865-1.6c.873-1.51.873-187.29 0-188.8-.318-.55-.707-1.27-.865-1.6-.411-.865-1.824-2.136-3.601-3.24l-1.544-.96-39.8-.049c-21.89-.027-40.237.034-40.771.137m107.771.497c-3.32.48-5.19 1.713-7.004 4.619l-.996 1.596v40.031c0 44.522-.186 41.374 2.605 44.164s-.334 2.605 43.964 2.605H293l1.6-.863c1.761-.95 3.241-2.463 4.306-4.399.646-1.173.694-4.051.694-41.277v-40.015l-.869-1.523c-1.247-2.187-1.83-2.789-3.894-4.024L293 100.2l-38.2-.052c-21.01-.029-39.1.078-40.2.237m-26.461.962c2.314 1.231 3.156 2.061 4.312 4.253l.949 1.8v92.4 92.4l-.969 1.969c-1.196 2.43-2.056 3.309-4.401 4.499l-1.83.929-39.4.002-39.4.003-1.757-.901c-2.215-1.136-3.208-2.129-4.344-4.344l-.901-1.757V200v-92.6l.901-1.757c1.091-2.128 2.095-3.17 4.146-4.3l1.555-.856 39.679-.044 39.679-.043 1.781.947m23.255 105.494c-2.186 1.153-3.509 2.472-4.53 4.516l-.864 1.731.006 40.156.584 41.156c.318.55.707 1.27.865 1.6.411.865 1.824 2.136 3.601 3.24l1.544.96h40.6 40.6l1.6-1.052c1.718-1.13 2.796-2.241 4.026-4.148.752-1.166.774-2.338.774-41.8v-40.6l-.96-1.544c-1.104-1.777-2.375-3.19-3.24-3.601-.33-.158-1.05-.547-1.6-.865-1.887-1.091-80.915-.852-83.006.251m82.924.677c2.217 1.185 3.205 2.196 4.35 4.452l.929 1.83.002 39.4.003 39.4-.901 1.757c-1.177 2.295-2.15 3.247-4.441 4.343l-1.881.9H253.01h-39.368l-1.781-.947c-2.314-1.231-3.156-2.061-4.312-4.253l-.949-1.8V253v-39.6l.969-1.6c3.418-5.646.359-5.303 46.831-5.247l38.2.047 1.718.918" fill="#dca4fc"/><path d="M108.4 101.185c0 .211-.765.59-1.7.841-2.033.547-4.7 3.136-4.7 4.562 0 .525-.27 1.225-.6 1.555-.724.724-.934 182.804-.211 183.25.214.133.59.987.836 1.9.572 2.126 2.564 4.112 4.699 4.687.922.248 1.676.624 1.676.835 0 .717 76.604.503 77.2-.215.274-.33.93-.6 1.458-.6 1.542 0 4.391-2.898 4.691-4.771.137-.859.475-1.637.75-1.729 1.002-.334.906-181.674-.096-183.296-.442-.714-.814-1.727-.829-2.251-.031-1.182-3.223-3.953-4.552-3.953-.508 0-1.148-.27-1.422-.6-.596-.718-77.2-.932-77.2-.215M214.6 207.6c-.66.437-1.605.796-2.1.797-1.123.004-4.1 2.911-4.1 4.004 0 .441-.36 1.474-.8 2.295-.783 1.461-.8 2.256-.8 38.504s.017 37.043.8 38.504c.44.821.811 1.899.826 2.395.031 1.131 3.264 3.901 4.552 3.901.508 0 1.148.27 1.422.6.596.718 77.2.932 77.2.215 0-.211.754-.587 1.676-.835 2.135-.575 4.127-2.561 4.699-4.687.246-.913.622-1.767.836-1.9.719-.444.511-76.393-.211-76.993-.33-.274-.6-.93-.6-1.458 0-1.457-2.894-4.388-4.607-4.666-.771-.125-1.682-.508-2.026-.852-1.096-1.096-75.102-.927-76.767.176" fill="#bc64fc"/><path d="M58.806.3c-.004.356-.883.5-3.043.5-2.701 0-3.061.089-3.247.8-.19.725-2.406 1.16-4.25.836-.184-.032-.43.306-.547.753-.151.578-.543.811-1.366.811-1.719 0-1.692-.008-2.553.795a5.12 5.12 0 0 1-1.905 1.02c-.608.151-1.256.544-1.441.873s-.944.63-1.689.668c-.903.045-1.488.333-1.759.865-.225.441-.711.737-1.088.662-.504-.1-.64.083-.521.703.127.66-.025.822-.718.764-1.631-.138-2.679.048-2.679.474 0 .233.193.304.43.158s.197.106-.087.56c-.326.522-.615.666-.785.391-.342-.555-1.158-.068-1.158.691 0 .317-.36.576-.8.576s-1.16.36-1.6.8-1.07.8-1.4.8-.6.356-.6.8-.258.8-.573.8-.687.36-.827.8c-.231.727-.675.978-1.5.847-.165-.026-.3.313-.3.753 0 .541-.267.8-.824.8-.453 0-.721.165-.596.368.296.479-.933 1.708-1.412 1.412-.203-.125-.368.143-.368.596 0 .557-.259.824-.8.824-.44 0-.779.135-.753.3.131.825-.12 1.269-.847 1.5-.44.14-.8.512-.8.827s-.36.573-.8.573c-.475 0-.8.267-.8.656 0 .361-.28.861-.622 1.111s-.669.72-.725 1.044c-.292 1.686-.745 2.488-1.097 1.942-.277-.431-.411-.354-.603.347-.135.495-.485.9-.776.9-.301 0-.683.734-.884 1.7-.213 1.023-.553 1.656-.855 1.59-.291-.065-.442.187-.36.6s-.201.884-.669 1.122c-.502.255-.816.823-.828 1.494-.01.596-.415 1.452-.9 1.904-.524.488-.881 1.3-.881 2.002 0 .748-.293 1.364-.8 1.681-.562.351-.8.933-.8 1.957 0 1.071-.192 1.507-.726 1.647-.571.149-.747.649-.824 2.337-.102 2.247-.223 2.566-.972 2.566-.286 0-.51 1.111-.603 2.999-.081 1.649-.331 3.112-.556 3.251-.254.157-.203.335.136.47.387.154.4.226.045.248C.101 59.594 0 87.964 0 200l.5 140.406c.333.004.3.136-.1.394s-.433.39-.1.394.5.69.5 2.075.225 2.316.679 2.819c.799.882.936 1.449.98 4.062.027 1.557.185 1.989.787 2.146.565.148.754.563.754 1.654 0 1.024.238 1.606.8 1.957.511.319.8.933.8 1.7 0 .706.33 1.483.8 1.886.44.377.8 1.097.8 1.6s.36 1.223.8 1.6.8.994.8 1.373c0 .476.25.64.811.532.446-.086.707.011.58.216-.385.624.264 3.186.807 3.186.28 0 .62.405.755.9.159.578.354.737.547.444.417-.634 1.206.254 1.067 1.201-.058.394.285 1.107.762 1.584s.809 1.117.739 1.423c-.085.369.122.492.614.363.408-.107.968.049 1.246.346.405.434.403.541-.012.551-.284.007-.156.216.284.466.969.549 1.416 1.173 1.15 1.603-.108.175.247.319.789.319.789 0 .944.16.777.8-.158.603-.012.8.591.8.48 0 .889.341 1.022.852.149.569.43.772.847.613.461-.178.624.017.624.748 0 .543.135.966.3.94.836-.132 1.271.126 1.517.9.212.668.345.733.615.3.249-.401.416-.197.605.741.143.711.408 1.202.588 1.091s.694.191 1.143.672 1.224.921 1.723.976l1.227.134c.174.018.264.348.2.733-.091.539.135.683.982.625.605-.042 1.1.104 1.1.323s.208.271.462.114c.293-.181.353-.109.164.196-.228.368-.429.371-.862.012-.419-.347-.564-.35-.564-.009 0 .595 1.816 1.284 2.597.985.42-.161.603.024.603.611 0 .538.255.843.704.843.387 0 .928.36 1.203.8.327.523.933.8 1.752.8.693 0 1.464.289 1.726.647s.999.705 1.641.776 1.467.499 1.834.952c.443.547 1.137.825 2.057.825 1.063 0 1.44.192 1.603.817.167.636.507.8 1.547.744 2.434-.131 3.036.024 3.249.839.186.711.546.8 3.247.8 2.16 0 3.039.144 3.043.5.004.333.136.3.394-.1s.39-.433.394-.1c.005.399 28.356.5 140.406.5l140.406-.5c.005-.366.099-.354.352.045.219.347.399.387.494.111.083-.245 1.46-.492 3.148-.565 1.866-.081 3-.3 3-.577 0-.785.464-.959 2.603-.975 1.712-.014 2.128-.155 2.291-.778.176-.672 1.335-1.024 2.634-.799.181.031.632-.318 1.003-.777.423-.521 1.174-.847 2.007-.871s1.506-.315 1.793-.776c.254-.406.87-.738 1.369-.738s1.216-.36 1.593-.8.994-.8 1.373-.8c.476 0 .64-.25.532-.811-.086-.446.011-.707.216-.58.624.385 3.186-.264 3.186-.807 0-.28.405-.62.9-.755.653-.179.76-.338.389-.578-.604-.39 1.303-1.457 2.36-1.32.362.047.744-.278.863-.734.153-.585.414-.742.915-.549.552.212.658.103.498-.51-.112-.429.039-1.006.336-1.284.434-.405.539-.403.54.012.001.284.359-.069.795-.784s.896-1.3 1.022-1.3.118.18-.018.4-.057.4.176.4.424-.433.424-.963c0-.765.164-.919.8-.753.614.161.8.012.8-.637 0-.58.252-.847.8-.847.533 0 .8-.267.8-.8 0-.547.267-.8.843-.8s.772-.184.614-.595c-.142-.37.136-.785.736-1.1.53-.278.963-.685.962-.905s.379-.49.845-.6.837-.335.824-.5c-.072-.907.033-1.1.601-1.1.356 0 .595-.302.554-.7-.039-.385-.028-.835.025-1s.119-.525.147-.8.408-.5.845-.501a.93.93 0 0 0 .937-.8c.08-.439.334-.979.565-1.199.285-.272.329-.24.137.1-.156.276-.073.5.185.5.302 0 .375-.364.207-1.034-.187-.747-.126-.951.22-.737.336.208.412.039.253-.566-.209-.801.104-1.067 1.051-.893.193.035.255-.304.138-.753s-.064-.817.12-.817c.648 0 1.591-1.268 1.591-2.14 0-.485.36-1.19.8-1.567s.8-1.109.8-1.627.36-1.268.8-1.666c.531-.48.8-1.232.8-2.233 0-1.118.181-1.543.7-1.643.494-.095.715-.546.752-1.53l.1-2.247c.027-.47.383-.941.791-1.048.635-.166.748-.619.774-3.107.018-1.775.214-3.026.502-3.204.349-.215.33-.348-.074-.508-.387-.154-.4-.226-.045-.248.399-.026.5-28.396.5-140.432l-.5-140.406c-.366-.005-.354-.099.045-.352.39-.247.411-.39.074-.502-.301-.101-.483-1.221-.502-3.101-.026-2.518-.138-2.972-.774-3.138-.408-.107-.764-.578-.791-1.048l-.1-2.247c-.037-.984-.258-1.435-.752-1.53-.518-.1-.7-.524-.7-1.636 0-1.059-.277-1.761-.942-2.385-.631-.594-.882-1.193-.762-1.821s-.087-1.122-.624-1.498c-.441-.309-.863-1.092-.937-1.74-.078-.684-.474-1.349-.944-1.587s-.75-.708-.669-1.119c.083-.417-.069-.665-.367-.6-.279.06-.579-.25-.667-.69s-.549-1.117-1.024-1.505c-.64-.522-.682-.641-.164-.457.394.139.7.054.7-.195 0-.244-.34-.443-.756-.443-.474 0-.734-.261-.7-.7s-.275-.747-.85-.828c-.498-.071-.81-.284-.693-.473s.046-.446-.157-.572-.275-.588-.16-1.027c.2-.764-.411-1.061-1.684-.819-.22.042-.175-.153.1-.432.759-.773.603-1.149-.477-1.149-.776 0-.944-.172-.816-.837.112-.582-.005-.773-.385-.627-.301.116-.879-.169-1.284-.632s-.513-.71-.238-.549.5.102.5-.131-.433-.424-.963-.424c-.765 0-.919-.164-.753-.8.161-.614.012-.8-.637-.8-.596 0-.847-.251-.847-.847 0-.649-.186-.798-.8-.637-.636.166-.8.012-.8-.753 0-.53-.191-.963-.424-.963s-.292.225-.131.5-.086.168-.549-.238-.754-.968-.645-1.249c.127-.333-.128-.495-.727-.463-.755.041-.899-.125-.789-.906.106-.756-.006-.902-.537-.698-.465.178-.737.01-.882-.544-.115-.441-.503-.829-.863-.863-1.275-.119-1.459-.164-1.96-.477-.278-.175-.395-.497-.259-.717s-.132-.498-.594-.619-.84-.46-.84-.755c0-.578-2.489-1.21-3.153-.8-.238.147-.341-.084-.249-.56.107-.558-.056-.811-.525-.811-.374 0-.891-.337-1.149-.75-.266-.425-.925-.75-1.523-.75s-1.296-.344-1.616-.8c-.314-.449-1.014-.8-1.594-.8-.568 0-1.44-.383-1.938-.85-.573-.539-1.427-.85-2.332-.85-1.045 0-1.479-.195-1.618-.729-.154-.589-.645-.745-2.547-.812-1.656-.058-2.534-.288-2.956-.773-.415-.478-1.335-.727-2.989-.808-1.313-.065-2.507-.309-2.651-.543-.172-.279-.338-.237-.48.12-.154.387-.226.4-.248.045C340.406.101 312.036 0 200 0L59.594.5c-.004.333-.136.3-.394-.1s-.39-.433-.394-.1m130.57 99.8c.282.385.684.7.893.7.43 0 2.531 2.093 2.531 2.522 0 .153.36.638.8 1.078.795.795.8 1.333.8 95.6l-.8 95.6c-.44.44-.8.946-.8 1.125 0 .42-2.14 2.475-2.578 2.475-.183 0-.564.315-.846.7-.772 1.056-84.093 1.089-85.248.034-1.05-.96-3.123-3.079-3.986-4.076-1.126-1.301-1.168-190.811-.042-191.634.385-.282.7-.701.7-.933s.585-.889 1.3-1.461l1.88-1.536c1.135-.966 3.07-1.008 43.752-.951 38.674.054 41.163.099 41.644.757m106.024.3c.398.44.921.803 1.162.807.531.008 2.238 1.753 2.238 2.287 0 .21.36.708.8 1.106 1.245 1.127 1.261 83.112.016 84.639-2.339 2.87-2.987 3.561-3.34 3.561-.213 0-.618.315-.9.7-.481.659-2.951.7-42.044.7H211.8l-1.483-1c-.816-.55-1.491-1.225-1.5-1.5s-.242-.508-.517-.517-.95-.684-1.5-1.5l-1-1.483v-41.532c0-39.093.041-41.563.7-42.044.385-.282.7-.687.7-.9 0-.353.691-1.001 3.561-3.34 1.527-1.245 83.512-1.229 84.639.016m.2 106c.44.44.946.8 1.125.8.42 0 2.475 2.14 2.475 2.578 0 .183.315.564.7.846.659.482.7 2.97.7 42.444 0 46.794.295 41.868-2.685 44.847s1.947 2.685-44.847 2.685c-39.474 0-41.962-.041-42.444-.7-.282-.385-.663-.7-.846-.7-.438 0-2.578-2.055-2.578-2.475 0-.179-.36-.685-.8-1.125-.79-.79-.8-1.333-.8-42.597 0-41.363.008-41.801.8-42.296.44-.275.8-.718.8-.985s.458-.944 1.018-1.504 1.237-1.018 1.504-1.018.71-.36.985-.8c.495-.792.933-.8 42.296-.8 41.264 0 41.807.01 42.597.8M.8 346.527c0 .747.652 1.235.968.725.123-.199-.045-.584-.372-.856-.485-.402-.596-.377-.596.131" fill="#f4e4fc"/><path d="M105.445 101.343c-2.051 1.13-3.055 2.172-4.146 4.3l-.901 1.757V200v92.6l.901 1.757c1.136 2.215 2.129 3.208 4.344 4.344l1.757.901 39.4-.003 39.4-.002 1.83-.929c3.026-1.535 5.227-4.67 5.124-7.294-.027-.675-.125-.876-.23-.474-.1.385-.347.7-.549.7s-.48.718-.621 1.596c-.305 1.906-3.137 4.804-4.696 4.804-.528 0-1.184.27-1.458.6-.596.718-77.2.932-77.2.215 0-.211-.754-.587-1.676-.835-2.135-.575-4.127-2.561-4.699-4.687-.246-.913-.622-1.767-.836-1.9-.723-.446-.513-182.526.211-183.25.33-.33.6-1.03.6-1.555 0-1.426 2.667-4.015 4.7-4.562.935-.251 1.7-.63 1.7-.841 0-.717 76.604-.503 77.2.215.274.33.914.6 1.422.6 1.364 0 4.521 2.772 4.555 4 .016.55.386 1.54.823 2.2l.795 1.2.002-1.116c.006-2.515-2.053-5.339-5.058-6.937l-1.781-.947-39.679.043-39.679.044-1.555.856m87.952 98.457l.103 45.068v-90.4c-.057-24.787-.103-4.388-.103 45.332m41.103 6.9h37.4c10.285-.06 1.87-.108-18.7-.108l-18.7.108m-22.942 1.038c-2.906 1.737-4.758 4.465-4.758 7.006v1.444l.8-1.492c.44-.821.8-1.854.8-2.295 0-1.093 2.977-4 4.1-4.004.495-.001 1.44-.36 2.1-.797l1.2-.795-1.4.035c-.77.02-2.049.423-2.842.898m79.809-.314c.344.344 1.255.727 2.026.852 1.713.278 4.607 3.209 4.607 4.666 0 .528.27 1.184.6 1.458.722.6.93 76.549.211 76.993-.214.133-.59.987-.836 1.9-.572 2.126-2.564 4.112-4.699 4.687-.922.248-1.676.624-1.676.835 0 .717-76.604.503-77.2-.215-.274-.33-.914-.6-1.422-.6-1.288 0-4.521-2.77-4.552-3.901-.015-.496-.386-1.574-.826-2.395l-.8-1.492v1.31c0 2.709 1.973 5.489 5.061 7.131l1.781.947h39.368 39.369l1.881-.9c2.291-1.096 3.264-2.048 4.441-4.343l.901-1.757-.003-39.4-.002-39.4-.929-1.83c-1.165-2.295-2.177-3.314-4.325-4.352-2.131-1.03-3.929-1.147-2.976-.194M206.592 253.2l.108 18.5v-37c-.06-10.175-.108-1.85-.108 18.5" fill="#c46cfc"/><path d="M105.58 99.543c-.561.141-1.281.479-1.6.751l-1.88 1.536c-.715.572-1.3 1.23-1.3 1.461s-.315.651-.7.933c-1.126.823-1.084 190.333.042 191.634.863.997 2.936 3.116 3.986 4.076 1.155 1.055 84.476 1.022 85.248-.034.282-.385.663-.7.846-.7.438 0 2.578-2.055 2.578-2.475 0-.179.36-.685.8-1.125.795-.795.8-1.333.8-95.6l-.8-95.6c-.44-.44-.8-.925-.8-1.078 0-.429-2.101-2.522-2.531-2.522-.209 0-.611-.315-.893-.7-.524-.718-81.037-1.253-83.796-.557m83.364 1.217c1.777 1.104 3.19 2.375 3.601 3.24.158.33.547 1.05.865 1.6.873 1.51.873 187.29 0 188.8-.318.55-.707 1.27-.865 1.6-.411.865-1.824 2.136-3.601 3.24l-1.544.96h-40.6-40.6l-1.6-1.052c-1.718-1.13-2.796-2.241-4.026-4.148-.76-1.178-.774-2.937-.774-95v-93.8l1.052-1.6c1.594-2.423 4.021-4.337 5.977-4.712.534-.103 18.881-.164 40.771-.137l39.8.049 1.544.96m21.817-.376c-2.87 2.339-3.561 2.987-3.561 3.34 0 .213-.315.618-.7.9-.659.481-.7 2.951-.7 42.044V188.2l1 1.483c.55.816 1.225 1.491 1.5 1.5s.508.242.517.517.684.95 1.5 1.5l1.483 1h41.532c39.093 0 41.563-.041 42.044-.7.282-.385.687-.7.9-.7.353 0 1.001-.691 3.34-3.561 1.245-1.527 1.229-83.512-.016-84.639-.44-.398-.8-.896-.8-1.106 0-.534-1.707-2.279-2.238-2.287-.241-.004-.764-.367-1.162-.807-1.127-1.245-83.112-1.261-84.639-.016m84.076.915c2.064 1.235 2.647 1.837 3.894 4.024l.869 1.523v40.015c0 37.226-.048 40.104-.694 41.277-1.065 1.936-2.545 3.449-4.306 4.399l-1.6.863h-39.831c-44.298 0-41.175.185-43.964-2.605s-2.605.358-2.605-44.164V106.6l.996-1.596c3.23-5.174.753-4.919 47.204-4.856l38.2.052 1.837 1.099M210.707 206.4c-.275.44-.718.8-.985.8s-.944.458-1.504 1.018-1.018 1.237-1.018 1.504-.36.71-.8.985c-.792.495-.8.933-.8 42.296 0 41.264.01 41.807.8 42.597.44.44.8.946.8 1.125 0 .42 2.14 2.475 2.578 2.475.183 0 .564.315.846.7.482.659 2.97.7 42.444.7 46.794 0 41.868.295 44.847-2.685s2.685 1.947 2.685-44.847c0-39.474-.041-41.962-.7-42.444-.385-.282-.7-.663-.7-.846 0-.438-2.055-2.578-2.475-2.578-.179 0-.685-.36-1.125-.8-.79-.79-1.333-.8-42.597-.8-41.363 0-41.801.008-42.296.8m83.693.19c.55.318 1.27.707 1.6.865.865.411 2.136 1.824 3.24 3.601l.96 1.544v40.6c0 39.462-.022 40.634-.774 41.8-1.23 1.907-2.308 3.018-4.026 4.148l-1.6 1.052h-40.6-40.6l-1.544-.96c-1.777-1.104-3.19-2.375-3.601-3.24-.158-.33-.547-1.05-.865-1.6-.494-.854-.579-6.863-.584-41.156L206 213.088l.864-1.731c1.021-2.044 2.344-3.363 4.53-4.516 2.091-1.103 81.119-1.342 83.006-.251" fill="#ecd4fc"/></svg>